<svg xmlns="http://www.w3.org/2000/svg" width="2400" height="3800" viewBox="0 0 2400 3800" font-family="DejaVu Sans, Arial, Helvetica, sans-serif" xmlns:c2pa="http://c2pa.org/manifest"><metadata><c2pa:manifest>AAAWgmp1bWIAAAAeanVtZGMycGEAEQAQgAAAqgA4m3EDYzJwYQAAABZcanVtYgAAAEdqdW1kYzJtYQARABCAAACqADibcQN1cm46YzJwYTo0ZTk0MGM1My1jMThiLTQ0MTQtYmRlZi1mZjhjZWQwOGYyNWYAAAADl2p1bWIAAAApanVtZGMyYXMAEQAQgAAAqgA4m3EDYzJwYS5hc3NlcnRpb25zAAAAALxqdW1iAAAARGp1bWRjYm9yABEAEIAAAKoAOJtxE2MycGEuaW5ncmVkaWVudC52MwAAAAAYYzJzaJUd3Xw572CLrIUIGDpSCdoAAABwY2JvcqNpZGM6Zm9ybWF0bWltYWdlL3N2Zyt4bWxqaW5zdGFuY2VJRHgseG1wOmlpZDpkNGI4ZTc3Ny1iZDEwLTRjYmMtODk5Yy1jYjNlOWZlZWY1NzdscmVsYXRpb25zaGlwaHBhcmVudE9mAAAB4mp1bWIAAABBanVtZGNib3IAEQAQgAAAqgA4m3ETYzJwYS5hY3Rpb25zLnYyAAAAABhjMnNohjK+wnZ1oyHX7xp4deZtcAAAAZljYm9yomdhY3Rpb25zgqJmYWN0aW9ua2MycGEub3BlbmVkanBhcmFtZXRlcnOha2luZ3JlZGllbnRzgaJjdXJseC1zZWxmI2p1bWJmPWMycGEuYXNzZXJ0aW9ucy9jMnBhLmluZ3JlZGllbnQudjNkaGFzaFgg+QhcrdMaeQU0z1d+oin9mRTWgHKCEVMIIlyViz7Mbw2kZmFjdGlvbngdY29tLmFudGhyb3BpYy5jbGF1ZGUucHJvdmlkZWRqcGFyYW1ldGVyc6F4H2NvbS5hbnRocm9waWMub3JpZ2luLWNvbmZpZGVuY2VndW5rbm93bmtkZXNjcmlwdGlvbnhmQ2xhdWRlIHByb3ZpZGVkIHRoaXMgZmlsZSBhdCB0aGUgcmVxdWVzdCBvZiBhIHVzZXIgYW5kIG1heSBoYXZlIGNyZWF0ZWQgb3IgbW9kaWZpZWQgdGhlIGZpbGUgY29udGVudHMubXNvZnR3YXJlQWdlbnShZG5hbWVmQ2xhdWRlcmFsbEFjdGlvbnNJbmNsdWRlZPUAAADIanVtYgAAAEBqdW1kY2JvcgARABCAAACqADibcRNjMnBhLmhhc2guZGF0YQAAAAAYYzJzaIqIiYbCdVDnlfW4WcwEcxoAAACAY2JvcqVjYWxnZnNoYTI1NmNwYWRNAAAAAAAAAAAAAAAAAGRoYXNoWCBdiyqjl7ISpGMqz+wRIhTJxuTScbiHPIIuUZGgUtChp2RuYW1lbmp1bWJmIG1hbmlmZXN0amV4Y2x1c2lvbnOBomVzdGFydBjSZmxlbmd0aBkeBAAAAj5qdW1iAAAAJ2p1bWRjMmNsABEAEIAAAKoAOJtxA2MycGEuY2xhaW0udjIAAAACD2Nib3KlY2FsZ2ZzaGEyNTZpc2lnbmF0dXJleE1zZWxmI2p1bWJmPS9jMnBhL3VybjpjMnBhOjRlOTQwYzUzLWMxOGItNDQxNC1iZGVmLWZmOGNlZDA4ZjI1Zi9jMnBhLnNpZ25hdHVyZWppbnN0YW5jZUlEeCx4bXA6aWlkOmU4ZmE2MDlhLWIzMWMtNDhkYS1hYTJhLTAyYzcyOTM1MjIyY3JjcmVhdGVkX2Fzc2VydGlvbnODomN1cmx4LXNlbGYjanVtYmY9YzJwYS5hc3NlcnRpb25zL2MycGEuaW5ncmVkaWVudC52M2RoYXNoWCD5CFyt0xp5BTTPV36iKf2ZFNaAcoIRUwgiXJWLPsxvDaJjdXJseCpzZWxmI2p1bWJmPWMycGEuYXNzZXJ0aW9ucy9jMnBhLmFjdGlvbnMudjJkaGFzaFggeReabqsgXKfrOCpQBAPKdZXa9aSWkj+4wp6kqc09kneiY3VybHgpc2VsZiNqdW1iZj1jMnBhLmFzc2VydGlvbnMvYzJwYS5oYXNoLmRhdGFkaGFzaFggD11iZmj+29Zr0kxnO/9l50HCMwqAKmhgu4wqUxN//WJ0Y2xhaW1fZ2VuZXJhdG9yX2luZm+jZG5hbWVvQW50aHJvcGljIEZpbGVzZ3ZlcnNpb25lMS4wLjBrc3BlY1ZlcnNpb25lMi40LjAAABA4anVtYgAAAChqdW1kYzJjcwARABCAAACqADibcQNjMnBhLnNpZ25hdHVyZQAAABAIY2JvctKEWQISogEmGCFZAgowggIGMIIBjaADAgECAhRA5aAK7sI50L64g/oGQgU9Z1UTADAKBggqhkjOPQQDAzBJMRcwFQYDVQQKEw5BbnRocm9waWMsIFBCQzEuMCwGA1UEAxMlQW50aHJvcGljIENvbnRlbnQgQ3JlZGVudGlhbHMgUm9vdCBDQTAeFw0yNjA4MDcxODQzNTZaFw0yODA4MDYxOTQzNTZaMEQxFzAVBgNVBAoTDkFudGhyb3BpYywgUEJDMSkwJwYDVQQDEyBBbnRocm9waWMgQ2xhdWRlIENvbnRlbnQgU2lnbmluZzBZMBMGByqGSM49AgEGCCqGSM49AwEHA0IABJh6CmvLUBgFFNU0vUKlOVtE6djd17L5SuwX0LemFisBM3dkd/3cyjxFA3Qo5S46fX0/ihY0VZ7mfb9KF703t5OjWDBWMA4GA1UdDwEB/wQEAwIHgDAVBgNVHSUEDjAMBgorBgEEAYPoXgIBMAwGA1UdEwEB/wQCMAAwHwYDVR0jBBgwFoAUzlHiBIFOZFsj+OPEz5o+nMHXXMIwCgYIKoZIzj0EAwMDZwAwZAIwMXMdFJ4BetLLVY7ORuE9noqbbAZOZn/aArXyTwFAZfKrPzxF2vPoJNf1+UCdg1XGAjBwX1zd9WGqYkqmL5SFqw1QySjr1zJfpJM9+1rdDwSPLMOPOjKuiXjoU/pUUeG9RwmhY3BhZFkNngAAAAAAAAAAAAAAAAAAAAAAAAAAAAAAAAAAAAAAAAAAAAAAAAAAAAAAAAAAAAAAAAAAAAAAAAAAAAAAAAAAAAAAAAAAAAAAAAAAAAAAAAAAAAAAAAAAAAAAAAAAAAAAAAAAAAAAAAAAAAAAAAAAAAAAAAAAAAAAAAAAAAAAAAAAAAAAAAAAAAAAAAAAAAAAAAAAAAAAAAAAAAAAAAAAAAAAAAAAAAAAAAAAAAAAAAAAAAAAAAAAAAAAAAAAAAAAAAAAAAAAAAAAAAAAAAAAAAAAAAAAAAAAAAAAAAAAAAAAAAAAAAAAAAAAAAAAAAAAAAAAAAAAAAAAAAAAAAAAAAAAAAAAAAAAAAAAAAAAAAAAAAAAAAAAAAAAAAAAAAAAAAAAAAAAAAAAAAAAAAAAAAAAAAAAAAAAAAAAAAAAAAAAAAAAAAAAAAAAAAAAAAAAAAAAAAAAAAAAAAAAAAAAAAAAAAAAAAAAAAAAAAAAAAAAAAAAAAAAAAAAAAAAAAAAAAAAAAAAAAAAAAAAAAAAAAAAAAAAAAAAAAAAAAAAAAAAAAAAAAAAAAAAAAAAAAAAAAAAAAAAAAAAAAAAAAAAAAAAAAAAAAAAAAAAAAAAAAAAAAAAAAAAAAAAAAAAAAAAAAAAAAAAAAAAAAAAAAAAAAAAAAAAAAAAAAAAAAAAAAAAAAAAAAAAAAAAAAAAAAAAAAAAAAAAAAAAAAAAAAAAAAAAAAAAAAAAAAAAAAAAAAAAAAAAAAAAAAAAAAAAAAAAAAAAAAAAAAAAAAAAAAAAAAAAAAAAAAAAAAAAAAAAAAAAAAAAAAAAAAAAAAAAAAAAAAAAAAAAAAAAAAAAAAAAAAAAAAAAAAAAAAAAAAAAAAAAAAAAAAAAAAAAAAAAAAAAAAAAAAAAAAAAAAAAAAAAAAAAAAAAAAAAAAAAAAAAAAAAAAAAAAAAAAAAAAAAAAAAAAAAAAAAAAAAAAAAAAAAAAAAAAAAAAAAAAAAAAAAAAAAAAAAAAAAAAAAAAAAAAAAAAAAAAAAAAAAAAAAAAAAAAAAAAAAAAAAAAAAAAAAAAAAAAAAAAAAAAAAAAAAAAAAAAAAAAAAAAAAAAAAAAAAAAAAAAAAAAAAAAAAAAAAAAAAAAAAAAAAAAAAAAAAAAAAAAAAAAAAAAAAAAAAAAAAAAAAAAAAAAAAAAAAAAAAAAAAAAAAAAAAAAAAAAAAAAAAAAAAAAAAAAAAAAAAAAAAAAAAAAAAAAAAAAAAAAAAAAAAAAAAAAAAAAAAAAAAAAAAAAAAAAAAAAAAAAAAAAAAAAAAAAAAAAAAAAAAAAAAAAAAAAAAAAAAAAAAAAAAAAAAAAAAAAAAAAAAAAAAAAAAAAAAAAAAAAAAAAAAAAAAAAAAAAAAAAAAAAAAAAAAAAAAAAAAAAAAAAAAAAAAAAAAAAAAAAAAAAAAAAAAAAAAAAAAAAAAAAAAAAAAAAAAAAAAAAAAAAAAAAAAAAAAAAAAAAAAAAAAAAAAAAAAAAAAAAAAAAAAAAAAAAAAAAAAAAAAAAAAAAAAAAAAAAAAAAAAAAAAAAAAAAAAAAAAAAAAAAAAAAAAAAAAAAAAAAAAAAAAAAAAAAAAAAAAAAAAAAAAAAAAAAAAAAAAAAAAAAAAAAAAAAAAAAAAAAAAAAAAAAAAAAAAAAAAAAAAAAAAAAAAAAAAAAAAAAAAAAAAAAAAAAAAAAAAAAAAAAAAAAAAAAAAAAAAAAAAAAAAAAAAAAAAAAAAAAAAAAAAAAAAAAAAAAAAAAAAAAAAAAAAAAAAAAAAAAAAAAAAAAAAAAAAAAAAAAAAAAAAAAAAAAAAAAAAAAAAAAAAAAAAAAAAAAAAAAAAAAAAAAAAAAAAAAAAAAAAAAAAAAAAAAAAAAAAAAAAAAAAAAAAAAAAAAAAAAAAAAAAAAAAAAAAAAAAAAAAAAAAAAAAAAAAAAAAAAAAAAAAAAAAAAAAAAAAAAAAAAAAAAAAAAAAAAAAAAAAAAAAAAAAAAAAAAAAAAAAAAAAAAAAAAAAAAAAAAAAAAAAAAAAAAAAAAAAAAAAAAAAAAAAAAAAAAAAAAAAAAAAAAAAAAAAAAAAAAAAAAAAAAAAAAAAAAAAAAAAAAAAAAAAAAAAAAAAAAAAAAAAAAAAAAAAAAAAAAAAAAAAAAAAAAAAAAAAAAAAAAAAAAAAAAAAAAAAAAAAAAAAAAAAAAAAAAAAAAAAAAAAAAAAAAAAAAAAAAAAAAAAAAAAAAAAAAAAAAAAAAAAAAAAAAAAAAAAAAAAAAAAAAAAAAAAAAAAAAAAAAAAAAAAAAAAAAAAAAAAAAAAAAAAAAAAAAAAAAAAAAAAAAAAAAAAAAAAAAAAAAAAAAAAAAAAAAAAAAAAAAAAAAAAAAAAAAAAAAAAAAAAAAAAAAAAAAAAAAAAAAAAAAAAAAAAAAAAAAAAAAAAAAAAAAAAAAAAAAAAAAAAAAAAAAAAAAAAAAAAAAAAAAAAAAAAAAAAAAAAAAAAAAAAAAAAAAAAAAAAAAAAAAAAAAAAAAAAAAAAAAAAAAAAAAAAAAAAAAAAAAAAAAAAAAAAAAAAAAAAAAAAAAAAAAAAAAAAAAAAAAAAAAAAAAAAAAAAAAAAAAAAAAAAAAAAAAAAAAAAAAAAAAAAAAAAAAAAAAAAAAAAAAAAAAAAAAAAAAAAAAAAAAAAAAAAAAAAAAAAAAAAAAAAAAAAAAAAAAAAAAAAAAAAAAAAAAAAAAAAAAAAAAAAAAAAAAAAAAAAAAAAAAAAAAAAAAAAAAAAAAAAAAAAAAAAAAAAAAAAAAAAAAAAAAAAAAAAAAAAAAAAAAAAAAAAAAAAAAAAAAAAAAAAAAAAAAAAAAAAAAAAAAAAAAAAAAAAAAAAAAAAAAAAAAAAAAAAAAAAAAAAAAAAAAAAAAAAAAAAAAAAAAAAAAAAAAAAAAAAAAAAAAAAAAAAAAAAAAAAAAAAAAAAAAAAAAAAAAAAAAAAAAAAAAAAAAAAAAAAAAAAAAAAAAAAAAAAAAAAAAAAAAAAAAAAAAAAAAAAAAAAAAAAAAAAAAAAAAAAAAAAAAAAAAAAAAAAAAAAAAAAAAAAAAAAAAAAAAAAAAAAAAAAAAAAAAAAAAAAAAAAAAAAAAAAAAAAAAAAAAAAAAAAAAAAAAAAAAAAAAAAAAAAAAAAAAAAAAAAAAAAAAAAAAAAAAAAAAAAAAAAAAAAAAAAAAAAAAAAAAAAAAAAAAAAAAAAAAAAAAAAAAAAAAAAAAAAAAAAAAAAAAAAAAAAAAAAAAAAAAAAAAAAAAAAAAAAAAAAAAAAAAAAAAAAAAAAAAAAAAAAAAAAAAAAAAAAAAAAAAAAAAAAAAAAAAAAAAAAAAAAAAAAAAAAAAAAAAAAAAAAAAAAAAAAAAAAAAAAAAAAAAAAAAAAAAAAAAAAAAAAAAAAAAAAAAAAAAAAAAAAAAAAAAAAAAAAAAAAAAAAAAAAAAAAAAAAAAAAAAAAAAAAAAAAAAAAAAAAAAAAAAAAAAAAAAAAAAAAAAAAAAAAAAAAAAAAAAAAAAAAAAAAAAAAAAAAAAAAAAAAAAAAAAAAAAAAAAAAAAAAAAAAAAAAAAAAAAAAAAAAAAAAAAAAAAAAAAAAAAAAAAAAAAAAAAAAAAAAAAAAAAAAAAAAAAAAAAAAAAAAAAAAAAAAAAAAAAAAAAAAAAAAAAAAAAAAAAAAAAAAAAAAAAAAAAAAAAAAAAAAAAAAAAAAAAAAAAAAAAAAAAAAAAAAAAAAAAAAAAAAAAAAAAAAAAAAAAAAAAAAAAAAAAAAAAAAAAAAAAAAAAAAAAAAAAAAAAAAAAAAAAAAAAAAAAAAAAAAAAAAAAAAAAAAAAAAAAAAAAAAAAAAAAAAAAAAAAAAAAAAAAAAAAAAAAAAAAAAAAAAAAAAAAAAAAAAAAAAAAAAAAAAAAAAAAAAAAAAAAAAAAAAAAAAAAAAAAAAAAAAAAAAAAAAAAAAAAAAAAAAAAAAAAAAAAAAAAAAAAAAAAAAAAAAAAAAAAAAAAAAAAAAAAAAAAAAAAAAAAAAAAAAAAAAAAAAAAAAAAAAAAAAAAAAAAAAAAAAAAAAAAAAAAAAAAAAAAAAAAAAAAAAAAAAAAAAAAAAAAAAAAAAAAAAAAAAAAAAAAAAAAAAAAAAAAAAAAAAAAAAAAAAAAAAAAAAAAAAAAAAAAAAAAAAAAAAAAAAAAAAAAAAAAAAAAAAAAAAAAAAAAAAAAAAAAAAAAAAAAAAAAAAAAAAAAAAAAAAAAAAAAAAAAAAAAAAAAAAAAAAAAAAAAAAAAAAAAAAAAAAAAAAAAAAAAAAAAAAAAAAAAAAAAAAAAAAAAAAAAAAAAAAAAAAAAAAAAAAAAAAAAAAAAAAAAAAAAAAAAAAAAAAAAAAAAAAAAAAAAAAAAAAAAAAAAAAAAAAAAAAAAAAAAAAAAAAAAAAAAAAAAAAAAAAAAAAAAAAAAAAAAAAAAAAAAAAAAAAAAAAAAAAAAAAAAAAAAAAAAAAAAAAAAAAAAAAAAAAAAAAAAAAAAAAAAAAAAAAAAAAAAAAAAAAAAAAAAAAAAAAAAAAAAAAAAAAAAAAAAAAAAAAAAAAAAAAAAAAAAAAAAAAAAAAAAAAAAAAAAAAAAAAAAAAAAAAAAAAAAAAAAAAAAAAAPZYQM/LwiVBuhVdY90TTxLyHj8hY3yHyArZyiwU9fAkpdt+NcfykWd8Igvg0Nm+ee7HdShrk6K/RTb/sXX9U9MnSIU=</c2pa:manifest></metadata>
<defs><marker id="ah" viewBox="0 0 10 10" refX="9" refY="5" markerWidth="5" markerHeight="5" orient="auto-start-reverse"><path d="M0 0 L10 5 L0 10 z" fill="#1b1b1b"/></marker></defs>
<rect width="2400" height="3800" fill="#ffffff"/>
<rect x="760" y="70" width="400" height="120" rx="8" fill="#F2F3F3" stroke="#555" stroke-width="3"/>
<text x="960" y="145" font-size="42" text-anchor="middle" font-weight="normal" fill="#1b1b1b">Internet</text>
<path d="M960 190 V298" fill="none" stroke="#1b1b1b" stroke-width="4" marker-end="url(#ah)"/>
<circle cx="960" cy="244" r="24" fill="#1b1b1b"/>
<text x="960" y="254" font-size="28" font-weight="bold" text-anchor="middle" fill="#fff">1</text>
<g transform="translate(900,300)"><rect width="120" height="120" rx="14" fill="#DD344C"/><g fill="none" stroke="#fff" stroke-width="6" stroke-linecap="round" stroke-linejoin="round"><path d="M60 22 L94 37 V62 C94 82 78 96 60 104 C42 96 26 82 26 62 V37 Z"/><path d="M42 56 H78 M42 74 H78 M60 40 V56 M51 56 V74 M69 56 V74" stroke-width="5"/></g></g>
<text x="960" y="470" font-size="32" text-anchor="middle" font-weight="normal" fill="#1b1b1b">AWS WAF</text>
<path d="M960 495 V638" fill="none" stroke="#1b1b1b" stroke-width="4" marker-end="url(#ah)"/>
<circle cx="960" cy="567" r="24" fill="#1b1b1b"/>
<text x="960" y="577" font-size="28" font-weight="bold" text-anchor="middle" fill="#fff">1</text>
<g transform="translate(900,640)"><rect width="120" height="120" rx="14" fill="#8C4FFF"/><g fill="none" stroke="#fff" stroke-width="6" stroke-linecap="round" stroke-linejoin="round"><rect x="46" y="22" width="28" height="22"/><path d="M60 44 V60 M28 60 H92 M28 60 V76 M60 60 V76 M92 60 V76"/><rect x="14" y="76" width="28" height="22"/><rect x="46" y="76" width="28" height="22"/><rect x="78" y="76" width="28" height="22"/></g></g>
<text x="960" y="805" font-size="32" text-anchor="middle" font-weight="normal" fill="#1b1b1b">Application Load Balancer</text>
<rect x="100" y="600" width="1720" height="2450" fill="none" stroke="#248814" stroke-width="4"/>
<text x="140" y="650" font-size="38" text-anchor="start" font-weight="bold" fill="#248814">Production VPC</text>
<rect x="160" y="900" width="760" height="2050" fill="none" stroke="#147EBA" stroke-width="3.5" stroke-dasharray="16 12"/>
<text x="540" y="2922" font-size="34" text-anchor="middle" font-weight="normal" fill="#147EBA">Availability Zone 1</text>
<rect x="200" y="1000" width="680" height="440" fill="#E8F3E3" stroke="#7AA116" stroke-width="2"/>
<text x="230" y="1055" font-size="30" text-anchor="start" font-weight="bold" fill="#2E7D1E">Public subnet</text>
<g transform="translate(780,1010)"><circle cx="28" cy="28" r="28" fill="#8C4FFF"/><g fill="none" stroke="#fff" stroke-width="3.5" stroke-linecap="round"><path d="M15 14 V42 M41 14 V42"/><rect x="21" y="22" width="14" height="12" rx="2"/></g></g>
<text x="808" y="1090" font-size="18" text-anchor="middle" fill="#444">Network ACL</text>
<g transform="translate(540,1180)"><rect width="120" height="120" rx="14" fill="#8C4FFF"/><g fill="none" stroke="#fff" stroke-width="6" stroke-linecap="round" stroke-linejoin="round"><rect x="20" y="34" width="80" height="52" rx="6"/><path d="M38 60 H80 M68 48 L80 60 L68 72"/></g></g>
<text x="685" y="1250" font-size="26" text-anchor="start" font-weight="normal" fill="#1b1b1b">NAT gateway</text>
<rect x="200" y="1560" width="680" height="590" fill="#E6F1F8" stroke="#147EBA" stroke-width="2"/>
<text x="230" y="1615" font-size="28" text-anchor="start" font-weight="bold" fill="#147EBA">Private subnet</text>
<text x="230" y="1652" font-size="28" text-anchor="start" font-weight="normal" fill="#147EBA">(Application)</text>
<g transform="translate(780,1570)"><circle cx="28" cy="28" r="28" fill="#8C4FFF"/><g fill="none" stroke="#fff" stroke-width="3.5" stroke-linecap="round"><path d="M15 14 V42 M41 14 V42"/><rect x="21" y="22" width="14" height="12" rx="2"/></g></g>
<text x="808" y="1650" font-size="18" text-anchor="middle" fill="#444">Network ACL</text>
<rect x="300" y="1700" width="540" height="380" rx="6" fill="none" stroke="#ED7100" stroke-width="3" stroke-dasharray="12 8"/>
<text x="314" y="1742" font-size="24" text-anchor="start" font-weight="normal" fill="#B55600">Auto Scaling group</text>
<g transform="translate(540,1790)"><rect width="120" height="120" rx="14" fill="#ED7100"/><g fill="none" stroke="#fff" stroke-width="6" stroke-linecap="round" stroke-linejoin="round"><path d="M60 20 L94 40 V80 L60 100 L26 80 V40 Z"/><path d="M60 40 L77 50 V70 L60 80 L43 70 V50 Z"/></g></g>
<text x="600" y="1965" font-size="30" text-anchor="middle" font-weight="normal" fill="#1b1b1b">ECS tasks</text>
<text x="600" y="2000" font-size="26" text-anchor="middle" font-weight="normal" fill="#444">(Node.js app)</text>
<rect x="200" y="2300" width="680" height="500" fill="#E6F1F8" stroke="#147EBA" stroke-width="2"/>
<text x="230" y="2355" font-size="28" text-anchor="start" font-weight="bold" fill="#147EBA">Private subnet</text>
<text x="230" y="2392" font-size="28" text-anchor="start" font-weight="normal" fill="#147EBA">(DB)</text>
<g transform="translate(780,2310)"><circle cx="28" cy="28" r="28" fill="#8C4FFF"/><g fill="none" stroke="#fff" stroke-width="3.5" stroke-linecap="round"><path d="M15 14 V42 M41 14 V42"/><rect x="21" y="22" width="14" height="12" rx="2"/></g></g>
<text x="808" y="2390" font-size="18" text-anchor="middle" fill="#444">Network ACL</text>
<g transform="translate(540,2480)"><rect width="120" height="120" rx="14" fill="#3B48CC"/><g fill="none" stroke="#fff" stroke-width="6" stroke-linecap="round" stroke-linejoin="round"><ellipse cx="60" cy="34" rx="30" ry="11"/><path d="M30 34 V86 C30 93 43 97 60 97 C77 97 90 93 90 86 V34"/><path d="M30 60 C30 67 43 71 60 71 C77 71 90 67 90 60"/></g></g>
<text x="600" y="2655" font-size="30" text-anchor="middle" font-weight="normal" fill="#1b1b1b">RDS primary</text>
<path d="M600 1180 V130 H760" fill="none" stroke="#1b1b1b" stroke-width="4" marker-end="url(#ah)"/>
<circle cx="600" cy="780" r="24" fill="#1b1b1b"/>
<text x="600" y="790" font-size="28" font-weight="bold" text-anchor="middle" fill="#fff">4</text>
<path d="M600 1790 V1304" fill="none" stroke="#1b1b1b" stroke-width="4" marker-end="url(#ah)"/>
<circle cx="600" cy="1500" r="24" fill="#1b1b1b"/>
<text x="600" y="1510" font-size="28" font-weight="bold" text-anchor="middle" fill="#fff">4</text>
<path d="M600 2025 V2476" fill="none" stroke="#1b1b1b" stroke-width="4" marker-end="url(#ah)"/>
<circle cx="600" cy="2225" r="24" fill="#1b1b1b"/>
<text x="600" y="2235" font-size="28" font-weight="bold" text-anchor="middle" fill="#fff">3</text>
<rect x="1000" y="900" width="760" height="2050" fill="none" stroke="#147EBA" stroke-width="3.5" stroke-dasharray="16 12"/>
<text x="1380" y="2922" font-size="34" text-anchor="middle" font-weight="normal" fill="#147EBA">Availability Zone 2</text>
<rect x="1040" y="1000" width="680" height="440" fill="#E8F3E3" stroke="#7AA116" stroke-width="2"/>
<text x="1070" y="1055" font-size="30" text-anchor="start" font-weight="bold" fill="#2E7D1E">Public subnet</text>
<g transform="translate(1620,1010)"><circle cx="28" cy="28" r="28" fill="#8C4FFF"/><g fill="none" stroke="#fff" stroke-width="3.5" stroke-linecap="round"><path d="M15 14 V42 M41 14 V42"/><rect x="21" y="22" width="14" height="12" rx="2"/></g></g>
<text x="1648" y="1090" font-size="18" text-anchor="middle" fill="#444">Network ACL</text>
<g transform="translate(1380,1180)"><rect width="120" height="120" rx="14" fill="#8C4FFF"/><g fill="none" stroke="#fff" stroke-width="6" stroke-linecap="round" stroke-linejoin="round"><rect x="20" y="34" width="80" height="52" rx="6"/><path d="M38 60 H80 M68 48 L80 60 L68 72"/></g></g>
<text x="1525" y="1250" font-size="26" text-anchor="start" font-weight="normal" fill="#1b1b1b">NAT gateway</text>
<rect x="1040" y="1560" width="680" height="590" fill="#E6F1F8" stroke="#147EBA" stroke-width="2"/>
<text x="1070" y="1615" font-size="28" text-anchor="start" font-weight="bold" fill="#147EBA">Private subnet</text>
<text x="1070" y="1652" font-size="28" text-anchor="start" font-weight="normal" fill="#147EBA">(Application)</text>
<g transform="translate(1620,1570)"><circle cx="28" cy="28" r="28" fill="#8C4FFF"/><g fill="none" stroke="#fff" stroke-width="3.5" stroke-linecap="round"><path d="M15 14 V42 M41 14 V42"/><rect x="21" y="22" width="14" height="12" rx="2"/></g></g>
<text x="1648" y="1650" font-size="18" text-anchor="middle" fill="#444">Network ACL</text>
<rect x="1140" y="1700" width="540" height="380" rx="6" fill="none" stroke="#ED7100" stroke-width="3" stroke-dasharray="12 8"/>
<text x="1154" y="1742" font-size="24" text-anchor="start" font-weight="normal" fill="#B55600">Auto Scaling group</text>
<g transform="translate(1380,1790)"><rect width="120" height="120" rx="14" fill="#ED7100"/><g fill="none" stroke="#fff" stroke-width="6" stroke-linecap="round" stroke-linejoin="round"><path d="M60 20 L94 40 V80 L60 100 L26 80 V40 Z"/><path d="M60 40 L77 50 V70 L60 80 L43 70 V50 Z"/></g></g>
<text x="1440" y="1965" font-size="30" text-anchor="middle" font-weight="normal" fill="#1b1b1b">ECS tasks</text>
<text x="1440" y="2000" font-size="26" text-anchor="middle" font-weight="normal" fill="#444">(Node.js app)</text>
<rect x="1040" y="2300" width="680" height="500" fill="#E6F1F8" stroke="#147EBA" stroke-width="2"/>
<text x="1070" y="2355" font-size="28" text-anchor="start" font-weight="bold" fill="#147EBA">Private subnet</text>
<text x="1070" y="2392" font-size="28" text-anchor="start" font-weight="normal" fill="#147EBA">(DB)</text>
<g transform="translate(1620,2310)"><circle cx="28" cy="28" r="28" fill="#8C4FFF"/><g fill="none" stroke="#fff" stroke-width="3.5" stroke-linecap="round"><path d="M15 14 V42 M41 14 V42"/><rect x="21" y="22" width="14" height="12" rx="2"/></g></g>
<text x="1648" y="2390" font-size="18" text-anchor="middle" fill="#444">Network ACL</text>
<g transform="translate(1380,2480)"><rect width="120" height="120" rx="14" fill="#3B48CC"/><g fill="none" stroke="#fff" stroke-width="6" stroke-linecap="round" stroke-linejoin="round"><ellipse cx="60" cy="34" rx="30" ry="11"/><path d="M30 34 V86 C30 93 43 97 60 97 C77 97 90 93 90 86 V34"/><path d="M30 60 C30 67 43 71 60 71 C77 71 90 67 90 60"/></g></g>
<text x="1440" y="2655" font-size="30" text-anchor="middle" font-weight="normal" fill="#1b1b1b">RDS standby</text>
<path d="M1440 1180 V130 H1160" fill="none" stroke="#1b1b1b" stroke-width="4" marker-end="url(#ah)"/>
<circle cx="1440" cy="780" r="24" fill="#1b1b1b"/>
<text x="1440" y="790" font-size="28" font-weight="bold" text-anchor="middle" fill="#fff">4</text>
<path d="M1440 1790 V1304" fill="none" stroke="#1b1b1b" stroke-width="4" marker-end="url(#ah)"/>
<circle cx="1440" cy="1500" r="24" fill="#1b1b1b"/>
<text x="1440" y="1510" font-size="28" font-weight="bold" text-anchor="middle" fill="#fff">4</text>
<path d="M1440 2025 V2476" fill="none" stroke="#1b1b1b" stroke-width="4" marker-end="url(#ah)"/>
<circle cx="1440" cy="2225" r="24" fill="#1b1b1b"/>
<text x="1440" y="2235" font-size="28" font-weight="bold" text-anchor="middle" fill="#fff">3</text>
<path d="M960 835 V1850" fill="none" stroke="#1b1b1b" stroke-width="4"/>
<path d="M960 1850 H664" fill="none" stroke="#1b1b1b" stroke-width="4" marker-end="url(#ah)"/>
<path d="M960 1850 H1376" fill="none" stroke="#1b1b1b" stroke-width="4" marker-end="url(#ah)"/>
<circle cx="760" cy="1850" r="24" fill="#1b1b1b"/>
<text x="760" y="1860" font-size="28" font-weight="bold" text-anchor="middle" fill="#fff">2</text>
<circle cx="1260" cy="1850" r="24" fill="#1b1b1b"/>
<text x="1260" y="1860" font-size="28" font-weight="bold" text-anchor="middle" fill="#fff">2</text>
<path d="M664 2540 H1376" fill="none" stroke="#1b1b1b" stroke-width="4" marker-end="url(#ah)" marker-start="url(#ah)"/>
<rect x="780" y="2486" width="360" height="40" fill="#ffffff"/>
<text x="960" y="2516" font-size="28" text-anchor="middle" font-weight="normal" fill="#1b1b1b">Multi-AZ replication</text>
<path d="M1820 1060 H2088" fill="none" stroke="#6b6b6b" stroke-width="3" stroke-dasharray="12 10"/>
<circle cx="1955" cy="1060" r="24" fill="#1b1b1b"/>
<text x="1955" y="1070" font-size="28" font-weight="bold" text-anchor="middle" fill="#fff">5</text>
<g transform="translate(2090,1000)"><rect width="120" height="120" rx="14" fill="#7AA116"/><g fill="none" stroke="#fff" stroke-width="6" stroke-linecap="round" stroke-linejoin="round"><ellipse cx="60" cy="34" rx="32" ry="10"/><path d="M28 34 L38 94 C38 99 48 101 60 101 C72 101 82 99 82 94 L92 34"/></g></g>
<text x="2150" y="1165" font-size="30" text-anchor="middle" font-weight="normal" fill="#1b1b1b">S3 logs bucket</text>
<path d="M1820 1410 H2088" fill="none" stroke="#6b6b6b" stroke-width="3" stroke-dasharray="12 10"/>
<circle cx="1955" cy="1410" r="24" fill="#1b1b1b"/>
<text x="1955" y="1420" font-size="28" font-weight="bold" text-anchor="middle" fill="#fff">5</text>
<g transform="translate(2090,1350)"><rect width="120" height="120" rx="14" fill="#E7157B"/><g fill="none" stroke="#fff" stroke-width="6" stroke-linecap="round" stroke-linejoin="round"><circle cx="54" cy="54" r="26"/><path d="M74 74 L98 98"/><path d="M40 60 L50 48 L58 60 L68 44" stroke-width="5"/></g></g>
<text x="2150" y="1515" font-size="30" text-anchor="middle" font-weight="normal" fill="#1b1b1b">CloudWatch</text>
<path d="M1820 1760 H2088" fill="none" stroke="#6b6b6b" stroke-width="3" stroke-dasharray="12 10"/>
<circle cx="1955" cy="1760" r="24" fill="#1b1b1b"/>
<text x="1955" y="1770" font-size="28" font-weight="bold" text-anchor="middle" fill="#fff">5</text>
<g transform="translate(2090,1700)"><rect width="120" height="120" rx="14" fill="#E7157B"/><g fill="none" stroke="#fff" stroke-width="6" stroke-linecap="round" stroke-linejoin="round"><path d="M24 92 L44 62 L62 78 L84 38 L98 48" stroke-width="6"/><circle cx="24" cy="92" r="5"/><circle cx="84" cy="38" r="5"/></g></g>
<text x="2150" y="1865" font-size="30" text-anchor="middle" font-weight="normal" fill="#1b1b1b">CloudTrail</text>
<path d="M1820 2110 H2088" fill="none" stroke="#6b6b6b" stroke-width="3" stroke-dasharray="12 10"/>
<circle cx="1955" cy="2110" r="24" fill="#1b1b1b"/>
<text x="1955" y="2120" font-size="28" font-weight="bold" text-anchor="middle" fill="#fff">5</text>
<g transform="translate(2090,2050)"><rect width="120" height="120" rx="14" fill="#E7157B"/><g fill="none" stroke="#fff" stroke-width="6" stroke-linecap="round" stroke-linejoin="round"><circle cx="60" cy="60" r="16"/><circle cx="60" cy="60" r="34" stroke-width="9" stroke-dasharray="10 9"/></g></g>
<text x="2150" y="2215" font-size="30" text-anchor="middle" font-weight="normal" fill="#1b1b1b">AWS Config</text>
<path d="M1820 2460 H2088" fill="none" stroke="#6b6b6b" stroke-width="3" stroke-dasharray="12 10"/>
<g transform="translate(2090,2400)"><rect width="120" height="120" rx="14" fill="#DD344C"/><g fill="none" stroke="#fff" stroke-width="6" stroke-linecap="round" stroke-linejoin="round"><rect x="20" y="34" width="80" height="52" rx="6"/><circle cx="44" cy="55" r="8"/><path d="M30 76 C30 66 58 66 58 76"/><path d="M68 52 H90 M68 64 H90 M68 76 H82" stroke-width="5"/></g></g>
<text x="2150" y="2565" font-size="30" text-anchor="middle" font-weight="normal" fill="#1b1b1b">IAM</text>
<circle cx="1905" cy="110" r="22" fill="#1b1b1b"/>
<text x="1905" y="119" font-size="26" font-weight="bold" text-anchor="middle" fill="#fff">1</text>
<text x="1945" y="119" font-size="26" text-anchor="start" font-weight="normal" fill="#1b1b1b">Internet traffic in</text>
<circle cx="1905" cy="172" r="22" fill="#1b1b1b"/>
<text x="1905" y="181" font-size="26" font-weight="bold" text-anchor="middle" fill="#fff">2</text>
<text x="1945" y="181" font-size="26" text-anchor="start" font-weight="normal" fill="#1b1b1b">Load balancer to app</text>
<circle cx="1905" cy="234" r="22" fill="#1b1b1b"/>
<text x="1905" y="243" font-size="26" font-weight="bold" text-anchor="middle" fill="#fff">3</text>
<text x="1945" y="243" font-size="26" text-anchor="start" font-weight="normal" fill="#1b1b1b">App to database</text>
<circle cx="1905" cy="296" r="22" fill="#1b1b1b"/>
<text x="1905" y="305" font-size="26" font-weight="bold" text-anchor="middle" fill="#fff">4</text>
<text x="1945" y="305" font-size="26" text-anchor="start" font-weight="normal" fill="#1b1b1b">Outbound internet via NAT</text>
<circle cx="1905" cy="358" r="22" fill="#1b1b1b"/>
<text x="1905" y="367" font-size="26" font-weight="bold" text-anchor="middle" fill="#fff">5</text>
<text x="1945" y="367" font-size="26" text-anchor="start" font-weight="normal" fill="#1b1b1b">Logs and records</text>
<g transform="translate(200,3500)"><rect width="120" height="120" rx="14" fill="#24292F"/><g fill="none" stroke="#fff" stroke-width="6" stroke-linecap="round" stroke-linejoin="round"><circle cx="40" cy="32" r="9"/><circle cx="40" cy="88" r="9"/><circle cx="82" cy="50" r="9"/><path d="M40 41 V79 M82 59 C82 72 40 66 40 79"/></g></g>
<text x="260" y="3680" font-size="30" text-anchor="middle" font-weight="normal" fill="#1b1b1b">GitHub</text>
<g transform="translate(560,3500)"><rect width="120" height="120" rx="14" fill="#3B48CC"/><g fill="none" stroke="#fff" stroke-width="6" stroke-linecap="round" stroke-linejoin="round"><rect x="20" y="34" width="80" height="52" rx="6"/><path d="M44 48 L58 60 L44 72 M64 48 L78 60 L64 72"/></g></g>
<text x="620" y="3680" font-size="30" text-anchor="middle" font-weight="normal" fill="#1b1b1b">CodePipeline</text>
<g transform="translate(920,3500)"><rect width="120" height="120" rx="14" fill="#3B48CC"/><g fill="none" stroke="#fff" stroke-width="6" stroke-linecap="round" stroke-linejoin="round"><rect x="24" y="32" width="32" height="24"/><rect x="64" y="32" width="32" height="24"/><rect x="44" y="64" width="32" height="24"/></g></g>
<text x="980" y="3680" font-size="30" text-anchor="middle" font-weight="normal" fill="#1b1b1b">CodeBuild</text>
<g transform="translate(1280,3500)"><rect width="120" height="120" rx="14" fill="#ED7100"/><g fill="none" stroke="#fff" stroke-width="6" stroke-linecap="round" stroke-linejoin="round"><path d="M60 18 L90 36 V70 L60 88 L30 70 V36 Z"/><path d="M28 102 H92"/></g></g>
<text x="1340" y="3680" font-size="30" text-anchor="middle" font-weight="normal" fill="#1b1b1b">Amazon ECR</text>
<g transform="translate(1640,3500)"><rect width="120" height="120" rx="14" fill="#3B48CC"/><g fill="none" stroke="#fff" stroke-width="6" stroke-linecap="round" stroke-linejoin="round"><path d="M34 84 C18 84 16 60 36 58 C38 38 70 34 80 54 C100 52 106 82 86 84 Z"/><path d="M60 78 V52 M49 63 L60 52 L71 63"/></g></g>
<text x="1700" y="3680" font-size="30" text-anchor="middle" font-weight="normal" fill="#1b1b1b">CodeDeploy</text>
<path d="M330 3560 H550" fill="none" stroke="#1b1b1b" stroke-width="4" marker-end="url(#ah)"/>
<path d="M690 3560 H910" fill="none" stroke="#1b1b1b" stroke-width="4" marker-end="url(#ah)"/>
<path d="M1050 3560 H1270" fill="none" stroke="#1b1b1b" stroke-width="4" marker-end="url(#ah)"/>
<path d="M1410 3560 H1630" fill="none" stroke="#1b1b1b" stroke-width="4" marker-end="url(#ah)"/>
<path d="M1700 3495 V3054" fill="none" stroke="#1b1b1b" stroke-width="4" marker-end="url(#ah)"/>
<text x="1730" y="3270" font-size="30" text-anchor="start" font-weight="normal" fill="#1b1b1b">Blue/green</text>
<text x="1730" y="3308" font-size="30" text-anchor="start" font-weight="normal" fill="#1b1b1b">deploy</text>
</svg>